<svg xmlns="http://www.w3.org/2000/svg" xmlns:xlink="http://www.w3.org/1999/xlink" width="16" zoomAndPan="magnify" viewBox="0 0 1500 1499.999933" height="16" preserveAspectRatio="xMidYMid meet" version="1.0"><defs><g/><clipPath id="731d8b78ec"><rect x="0" width="492" y="0" height="1088"/></clipPath><clipPath id="8a68409e32"><rect x="0" width="648" y="0" height="1087"/></clipPath></defs><g transform="matrix(1, 0, 0, 1, 299, 205)"><g clip-path="url(#731d8b78ec)"><g fill="#ffffff" fill-opacity="1"><g transform="translate(0.373787, 873.636923)"><g><path d="M 348.71875 -355.5 C 379.5625 -337.4375 403.632812 -313.546875 420.9375 -283.828125 C 438.25 -254.109375 446.90625 -221.945312 446.90625 -187.34375 C 446.90625 -151.976562 438.25 -119.8125 420.9375 -90.84375 C 403.632812 -61.882812 380.5 -38.375 351.53125 -20.3125 C 322.570312 -2.257812 290.035156 7.519531 253.921875 9.03125 C 249.410156 9.78125 246.023438 10.15625 243.765625 10.15625 C 194.859375 10.15625 151.597656 -5.265625 113.984375 -36.109375 C 111.722656 -38.367188 109.085938 -41.003906 106.078125 -44.015625 C 105.328125 -44.015625 104.765625 -44.390625 104.390625 -45.140625 C 104.015625 -45.890625 103.453125 -46.265625 102.703125 -46.265625 C 99.691406 -49.273438 96.679688 -52.660156 93.671875 -56.421875 C 92.921875 -57.179688 92.164062 -57.9375 91.40625 -58.6875 C 88.394531 -61.695312 85.765625 -64.328125 83.515625 -66.578125 C 55.671875 -101.941406 41.75 -142.195312 41.75 -187.34375 C 41.75 -189.59375 42.878906 -190.71875 45.140625 -190.71875 L 60.9375 -190.71875 C 62.445312 -190.71875 63.578125 -190.34375 64.328125 -189.59375 C 65.078125 -188.09375 65.453125 -186.960938 65.453125 -186.203125 L 64.328125 -183.953125 C 62.816406 -175.679688 62.0625 -161.007812 62.0625 -139.9375 C 62.0625 -118.875 71.46875 -96.304688 90.28125 -72.234375 C 92.539062 -68.460938 94.800781 -65.828125 97.0625 -64.328125 C 97.8125 -62.816406 98.5625 -61.6875 99.3125 -60.9375 C 101.570312 -57.925781 104.582031 -54.914062 108.34375 -51.90625 C 111.351562 -48.90625 114.738281 -45.898438 118.5 -42.890625 C 154.613281 -12.796875 196.367188 2.25 243.765625 2.25 C 246.023438 2.25 249.035156 2.25 252.796875 2.25 C 283.640625 0 311.660156 -8.835938 336.859375 -24.265625 C 362.066406 -39.691406 382.003906 -59.816406 396.671875 -84.640625 C 411.347656 -109.472656 418.6875 -136.9375 418.6875 -167.03125 C 418.6875 -197.125 411.347656 -224.957031 396.671875 -250.53125 C 382.003906 -276.113281 361.128906 -296.804688 334.046875 -312.609375 L 143.328125 -428.84375 C 113.984375 -446.90625 91.035156 -470.796875 74.484375 -500.515625 C 57.929688 -530.234375 49.65625 -562.769531 49.65625 -598.125 C 49.65625 -633.488281 57.742188 -665.648438 73.921875 -694.609375 C 90.097656 -723.578125 112.289062 -747.085938 140.5 -765.140625 C 168.71875 -783.203125 200.128906 -793.363281 234.734375 -795.625 C 238.492188 -795.625 241.503906 -795.625 243.765625 -795.625 C 246.773438 -795.625 248.28125 -794.117188 248.28125 -791.109375 C 248.28125 -788.847656 246.773438 -787.71875 243.765625 -787.71875 C 242.265625 -787.71875 239.628906 -787.71875 235.859375 -787.71875 C 205.765625 -786.21875 178.679688 -777.566406 154.609375 -761.765625 C 130.535156 -745.960938 111.535156 -725.457031 97.609375 -700.25 C 83.691406 -675.050781 76.734375 -647.40625 76.734375 -617.3125 C 76.734375 -587.21875 84.066406 -559.003906 98.734375 -532.671875 C 113.410156 -506.335938 133.164062 -485.648438 158 -470.609375 Z M 383.703125 -724.53125 C 377.679688 -730.550781 371.285156 -736.566406 364.515625 -742.578125 C 363.015625 -744.835938 363.015625 -746.722656 364.515625 -748.234375 C 366.023438 -750.484375 367.90625 -750.484375 370.15625 -748.234375 C 376.9375 -742.210938 383.332031 -735.816406 389.34375 -729.046875 C 422.445312 -692.179688 439 -648.539062 439 -598.125 C 439 -595.113281 437.875 -593.609375 435.625 -593.609375 L 419.8125 -593.609375 C 418.3125 -593.609375 417.1875 -593.988281 416.4375 -594.75 C 415.6875 -596.25 415.6875 -597.375 416.4375 -598.125 C 425.457031 -646.28125 414.546875 -688.414062 383.703125 -724.53125 Z M 383.703125 -724.53125 "/></g></g></g></g></g><g transform="matrix(1, 0, 0, 1, 556, 205)"><g clip-path="url(#8a68409e32)"><g fill="#ffffff" fill-opacity="1"><g transform="translate(0.780415, 872.614678)"><g><path d="M 80.1875 -765.671875 L 255.21875 -68.890625 C 255.21875 -68.140625 255.21875 -67.382812 255.21875 -66.625 L 237.15625 6.78125 C 237.15625 5.269531 237.15625 5.269531 237.15625 6.78125 C 237.15625 7.53125 236.78125 8.28125 236.03125 9.03125 C 235.269531 9.03125 234.890625 9.03125 234.890625 9.03125 C 234.140625 9.78125 233.765625 10.15625 233.765625 10.15625 C 233.015625 10.15625 232.265625 9.78125 231.515625 9.03125 C 230.753906 8.28125 230 7.53125 229.25 6.78125 L 36.140625 -764.546875 C 33.128906 -776.585938 25.597656 -782.609375 13.546875 -782.609375 C 11.285156 -782.609375 10.15625 -783.738281 10.15625 -786 C 10.15625 -789.007812 11.285156 -790.515625 13.546875 -790.515625 L 71.140625 -790.515625 C 71.140625 -790.515625 71.328125 -790.515625 71.703125 -790.515625 C 72.085938 -790.515625 72.28125 -790.515625 72.28125 -790.515625 L 92.609375 -790.515625 C 94.859375 -790.515625 95.984375 -789.007812 95.984375 -786 C 95.984375 -783.738281 94.859375 -782.609375 92.609375 -782.609375 C 88.085938 -782.609375 84.695312 -781.101562 82.4375 -778.09375 C 80.175781 -775.082031 79.425781 -770.941406 80.1875 -765.671875 Z M 630.15625 -790.515625 C 633.164062 -790.515625 634.671875 -789.007812 634.671875 -786 C 634.671875 -783.738281 633.164062 -782.609375 630.15625 -782.609375 C 618.113281 -782.609375 610.582031 -776.585938 607.5625 -764.546875 L 432.53125 -66.625 L 414.453125 6.78125 C 414.453125 5.269531 414.453125 5.269531 414.453125 6.78125 C 414.453125 7.53125 414.078125 8.28125 413.328125 9.03125 C 412.578125 9.03125 412.203125 9.03125 412.203125 9.03125 C 411.441406 9.78125 411.0625 10.15625 411.0625 10.15625 C 410.3125 10.15625 409.9375 9.78125 409.9375 9.03125 C 409.1875 9.03125 408.8125 9.03125 408.8125 9.03125 C 408.0625 8.28125 407.6875 7.53125 407.6875 6.78125 C 407.6875 8.28125 407.304688 8.28125 406.546875 6.78125 L 321.859375 -332.015625 L 283.453125 -177.296875 C 282.703125 -175.046875 281.195312 -173.921875 278.9375 -173.921875 C 275.925781 -174.671875 274.796875 -176.175781 275.546875 -178.4375 L 318.46875 -347.828125 L 213.4375 -764.546875 C 210.425781 -776.585938 202.898438 -782.609375 190.859375 -782.609375 C 188.597656 -782.609375 187.46875 -783.738281 187.46875 -786 C 187.46875 -789.007812 188.597656 -790.515625 190.859375 -790.515625 L 269.90625 -790.515625 C 272.914062 -790.515625 274.421875 -789.007812 274.421875 -786 C 274.421875 -783.738281 272.914062 -782.609375 269.90625 -782.609375 C 265.382812 -782.609375 261.992188 -781.101562 259.734375 -778.09375 C 257.484375 -775.082031 256.734375 -770.941406 257.484375 -765.671875 L 341.046875 -437.046875 L 422.359375 -765.671875 C 423.867188 -770.941406 423.492188 -775.082031 421.234375 -778.09375 C 418.972656 -781.101562 415.582031 -782.609375 411.0625 -782.609375 C 408.050781 -782.609375 406.546875 -783.738281 406.546875 -786 C 406.546875 -789.007812 408.050781 -790.515625 411.0625 -790.515625 L 452.859375 -790.515625 C 455.117188 -790.515625 456.25 -789.007812 456.25 -786 C 456.25 -783.738281 455.117188 -782.609375 452.859375 -782.609375 C 440.804688 -782.609375 433.273438 -776.585938 430.265625 -764.546875 L 344.4375 -421.234375 L 429.140625 -83.5625 L 600.796875 -765.671875 C 601.546875 -770.941406 600.789062 -775.082031 598.53125 -778.09375 C 596.269531 -781.101562 592.882812 -782.609375 588.375 -782.609375 C 586.113281 -782.609375 584.984375 -783.738281 584.984375 -786 C 584.984375 -789.007812 586.113281 -790.515625 588.375 -790.515625 Z M 630.15625 -790.515625 "/></g></g></g></g></g><path stroke-linecap="butt" transform="matrix(0.75, 0, 0, 0.75, 299.373788, 239.272795)" fill="none" stroke-linejoin="miter" d="M 0.00161658 3.000856 L 705.460011 3.000856 " stroke="#ffffff" stroke-width="6" stroke-opacity="1" stroke-miterlimit="4"/><path stroke-linecap="butt" transform="matrix(0.75, 0, 0, 0.75, 897.123172, 1128.449643)" fill="none" stroke-linejoin="miter" d="M 0.00243723 2.999435 L 391.471221 2.999435 " stroke="#ffffff" stroke-width="6" stroke-opacity="1" stroke-miterlimit="4"/></svg>