<svg xmlns="http://www.w3.org/2000/svg" xmlns:xlink="http://www.w3.org/1999/xlink" width="170" zoomAndPan="magnify" viewBox="0 0 127.5 34.499999" height="46" preserveAspectRatio="xMidYMid meet" version="1.0"><defs><g/><clipPath id="3fe0262e37"><rect x="0" width="110" y="0" height="28"/></clipPath></defs><g transform="matrix(1, 0, 0, 1, 5, 3)"><g clip-path="url(#3fe0262e37)"><g fill="#000000" fill-opacity="1"><g transform="translate(0.632785, 21.81121)"><g><path d="M 8.46875 -8.640625 C 9.21875 -8.191406 9.800781 -7.609375 10.21875 -6.890625 C 10.644531 -6.171875 10.859375 -5.390625 10.859375 -4.546875 C 10.859375 -3.691406 10.644531 -2.910156 10.21875 -2.203125 C 9.800781 -1.503906 9.238281 -0.929688 8.53125 -0.484375 C 7.832031 -0.046875 7.046875 0.1875 6.171875 0.21875 C 6.054688 0.238281 5.972656 0.25 5.921875 0.25 C 4.734375 0.25 3.679688 -0.125 2.765625 -0.875 C 2.710938 -0.925781 2.648438 -0.988281 2.578125 -1.0625 C 2.554688 -1.0625 2.539062 -1.070312 2.53125 -1.09375 C 2.519531 -1.113281 2.507812 -1.125 2.5 -1.125 C 2.425781 -1.195312 2.351562 -1.28125 2.28125 -1.375 C 2.257812 -1.382812 2.238281 -1.398438 2.21875 -1.421875 C 2.144531 -1.492188 2.082031 -1.554688 2.03125 -1.609375 C 1.351562 -2.472656 1.015625 -3.453125 1.015625 -4.546875 C 1.015625 -4.597656 1.039062 -4.625 1.09375 -4.625 L 1.484375 -4.625 C 1.515625 -4.625 1.539062 -4.617188 1.5625 -4.609375 C 1.582031 -4.566406 1.59375 -4.535156 1.59375 -4.515625 L 1.5625 -4.46875 C 1.519531 -4.269531 1.5 -3.910156 1.5 -3.390625 C 1.5 -2.878906 1.726562 -2.332031 2.1875 -1.75 C 2.25 -1.65625 2.304688 -1.59375 2.359375 -1.5625 C 2.378906 -1.519531 2.394531 -1.492188 2.40625 -1.484375 C 2.46875 -1.410156 2.539062 -1.335938 2.625 -1.265625 C 2.695312 -1.191406 2.78125 -1.117188 2.875 -1.046875 C 3.75 -0.304688 4.765625 0.0625 5.921875 0.0625 C 5.972656 0.0625 6.046875 0.0625 6.140625 0.0625 C 6.890625 0 7.566406 -0.21875 8.171875 -0.59375 C 8.785156 -0.96875 9.269531 -1.453125 9.625 -2.046875 C 9.988281 -2.648438 10.171875 -3.320312 10.171875 -4.0625 C 10.171875 -4.789062 9.988281 -5.460938 9.625 -6.078125 C 9.269531 -6.703125 8.765625 -7.207031 8.109375 -7.59375 L 3.484375 -10.421875 C 2.765625 -10.859375 2.203125 -11.4375 1.796875 -12.15625 C 1.398438 -12.875 1.203125 -13.664062 1.203125 -14.53125 C 1.203125 -15.382812 1.398438 -16.160156 1.796875 -16.859375 C 2.191406 -17.566406 2.726562 -18.140625 3.40625 -18.578125 C 4.09375 -19.015625 4.859375 -19.265625 5.703125 -19.328125 C 5.796875 -19.328125 5.867188 -19.328125 5.921875 -19.328125 C 5.992188 -19.328125 6.03125 -19.289062 6.03125 -19.21875 C 6.03125 -19.15625 5.992188 -19.125 5.921875 -19.125 C 5.878906 -19.125 5.816406 -19.125 5.734375 -19.125 C 4.992188 -19.09375 4.332031 -18.882812 3.75 -18.5 C 3.164062 -18.113281 2.703125 -17.613281 2.359375 -17 C 2.023438 -16.394531 1.859375 -15.722656 1.859375 -14.984375 C 1.859375 -14.253906 2.035156 -13.566406 2.390625 -12.921875 C 2.753906 -12.285156 3.238281 -11.785156 3.84375 -11.421875 Z M 9.3125 -17.59375 C 9.164062 -17.738281 9.015625 -17.882812 8.859375 -18.03125 C 8.816406 -18.082031 8.816406 -18.128906 8.859375 -18.171875 C 8.890625 -18.222656 8.929688 -18.222656 8.984375 -18.171875 C 9.148438 -18.023438 9.304688 -17.867188 9.453125 -17.703125 C 10.253906 -16.804688 10.65625 -15.75 10.65625 -14.53125 C 10.65625 -14.457031 10.628906 -14.421875 10.578125 -14.421875 L 10.1875 -14.421875 C 10.15625 -14.421875 10.128906 -14.425781 10.109375 -14.4375 C 10.085938 -14.476562 10.085938 -14.507812 10.109375 -14.53125 C 10.328125 -15.695312 10.0625 -16.71875 9.3125 -17.59375 Z M 9.3125 -17.59375 "/></g></g></g><g fill="#000000" fill-opacity="1"><g transform="translate(12.523385, 21.81121)"><g><path d="M 12.359375 -19.1875 C 12.410156 -19.1875 12.4375 -19.148438 12.4375 -19.078125 L 12.4375 -17.953125 C 12.4375 -17.898438 12.410156 -17.875 12.359375 -17.875 C 12.304688 -17.875 12.28125 -17.898438 12.28125 -17.953125 C 12.28125 -18.191406 11.894531 -18.425781 11.125 -18.65625 C 10.351562 -18.882812 9.359375 -19 8.140625 -19 L 6.765625 -19 L 6.765625 -0.515625 C 6.765625 -0.222656 6.90625 -0.078125 7.1875 -0.078125 C 7.238281 -0.078125 7.265625 -0.0507812 7.265625 0 C 7.265625 0.0507812 7.238281 0.078125 7.1875 0.078125 L 5.296875 0.078125 C 5.234375 0.078125 5.203125 0.0507812 5.203125 0 C 5.203125 -0.0507812 5.234375 -0.078125 5.296875 -0.078125 C 5.585938 -0.078125 5.734375 -0.222656 5.734375 -0.515625 L 5.734375 -19 L 4.359375 -19 C 3.128906 -19 2.128906 -18.882812 1.359375 -18.65625 C 0.597656 -18.425781 0.21875 -18.191406 0.21875 -17.953125 C 0.21875 -17.898438 0.179688 -17.875 0.109375 -17.875 C 0.0546875 -17.875 0.03125 -17.898438 0.03125 -17.953125 L 0.03125 -19.078125 C 0.03125 -19.148438 0.0546875 -19.1875 0.109375 -19.1875 Z M 12.359375 -19.1875 "/></g></g></g><g fill="#000000" fill-opacity="1"><g transform="translate(25.016734, 21.81121)"><g><path d="M 8.546875 -19.328125 C 9.535156 -19.285156 10.460938 -19.003906 11.328125 -18.484375 C 12.203125 -17.960938 12.972656 -17.253906 13.640625 -16.359375 C 14.304688 -15.460938 14.820312 -14.429688 15.1875 -13.265625 C 15.550781 -12.097656 15.734375 -10.851562 15.734375 -9.53125 C 15.734375 -8.21875 15.550781 -6.976562 15.1875 -5.8125 C 14.820312 -4.644531 14.304688 -3.613281 13.640625 -2.71875 C 12.972656 -1.820312 12.203125 -1.113281 11.328125 -0.59375 C 10.460938 -0.0703125 9.535156 0.195312 8.546875 0.21875 C 8.523438 0.21875 8.515625 0.21875 8.515625 0.21875 C 8.484375 0.238281 8.429688 0.25 8.359375 0.25 C 8.285156 0.25 8.226562 0.238281 8.1875 0.21875 C 7.207031 0.195312 6.273438 -0.0703125 5.390625 -0.59375 C 4.515625 -1.113281 3.75 -1.820312 3.09375 -2.71875 C 2.4375 -3.613281 1.921875 -4.644531 1.546875 -5.8125 C 1.171875 -6.976562 0.984375 -8.21875 0.984375 -9.53125 C 0.984375 -10.851562 1.171875 -12.097656 1.546875 -13.265625 C 1.921875 -14.429688 2.4375 -15.460938 3.09375 -16.359375 C 3.75 -17.253906 4.515625 -17.960938 5.390625 -18.484375 C 6.273438 -19.003906 7.207031 -19.285156 8.1875 -19.328125 C 8.300781 -19.328125 8.410156 -19.328125 8.515625 -19.328125 C 8.515625 -19.328125 8.519531 -19.328125 8.53125 -19.328125 C 8.539062 -19.328125 8.546875 -19.328125 8.546875 -19.328125 Z M 8.515625 0.0625 C 9.398438 0.0195312 10.21875 -0.265625 10.96875 -0.796875 C 11.71875 -1.335938 12.359375 -2.070312 12.890625 -3 C 13.429688 -3.9375 13.832031 -5.019531 14.09375 -6.25 C 14.320312 -7.289062 14.4375 -8.382812 14.4375 -9.53125 C 14.4375 -11.3125 14.175781 -12.914062 13.65625 -14.34375 C 13.132812 -15.78125 12.429688 -16.925781 11.546875 -17.78125 C 10.660156 -18.644531 9.648438 -19.09375 8.515625 -19.125 C 8.484375 -19.125 8.429688 -19.125 8.359375 -19.125 C 8.285156 -19.125 8.226562 -19.125 8.1875 -19.125 C 7.28125 -19.09375 6.441406 -18.785156 5.671875 -18.203125 C 4.898438 -17.628906 4.242188 -16.835938 3.703125 -15.828125 C 3.171875 -14.828125 2.785156 -13.679688 2.546875 -12.390625 C 2.367188 -11.472656 2.28125 -10.519531 2.28125 -9.53125 C 2.28125 -9.207031 2.285156 -8.878906 2.296875 -8.546875 C 2.316406 -8.378906 2.335938 -8.222656 2.359375 -8.078125 C 2.378906 -7.753906 2.414062 -7.445312 2.46875 -7.15625 C 2.539062 -6.695312 2.628906 -6.25 2.734375 -5.8125 C 2.921875 -5.09375 3.148438 -4.4375 3.421875 -3.84375 C 3.535156 -3.582031 3.65625 -3.34375 3.78125 -3.125 C 3.90625 -2.90625 4.039062 -2.695312 4.1875 -2.5 C 4.757812 -1.65625 5.410156 -1.015625 6.140625 -0.578125 C 6.316406 -0.460938 6.5 -0.367188 6.6875 -0.296875 C 7.175781 -0.078125 7.675781 0.0390625 8.1875 0.0625 C 8.226562 0.0625 8.285156 0.0625 8.359375 0.0625 C 8.453125 0.0625 8.503906 0.0625 8.515625 0.0625 Z M 8.515625 0.0625 "/></g></g></g><g fill="#000000" fill-opacity="1"><g transform="translate(41.756726, 21.81121)"><g><path d="M 11.953125 -0.359375 C 12.003906 -0.304688 12.007812 -0.257812 11.96875 -0.21875 C 11.9375 -0.195312 11.898438 -0.179688 11.859375 -0.171875 C 11.878906 -0.171875 11.878906 -0.171875 11.859375 -0.171875 C 11.859375 -0.171875 11.859375 -0.164062 11.859375 -0.15625 C 11.859375 -0.144531 11.859375 -0.140625 11.859375 -0.140625 C 11.660156 0.00390625 11.441406 0.078125 11.203125 0.078125 C 10.898438 0.078125 10.644531 -0.0195312 10.4375 -0.21875 C 10.21875 -0.4375 10.109375 -0.691406 10.109375 -0.984375 L 10.109375 -4.765625 C 10.109375 -5.609375 9.945312 -6.367188 9.625 -7.046875 C 9.3125 -7.734375 8.878906 -8.289062 8.328125 -8.71875 C 7.785156 -9.15625 7.175781 -9.398438 6.5 -9.453125 C 6.425781 -9.453125 6.359375 -9.453125 6.296875 -9.453125 C 6.242188 -9.453125 6.21875 -9.476562 6.21875 -9.53125 C 6.21875 -9.601562 6.242188 -9.640625 6.296875 -9.640625 L 6.796875 -9.640625 C 6.847656 -9.640625 6.921875 -9.640625 7.015625 -9.640625 C 7.648438 -9.679688 8.222656 -9.910156 8.734375 -10.328125 C 9.253906 -10.753906 9.65625 -11.304688 9.9375 -11.984375 C 10.21875 -12.671875 10.359375 -13.445312 10.359375 -14.3125 C 10.359375 -15.164062 10.21875 -15.9375 9.9375 -16.625 C 9.65625 -17.320312 9.253906 -17.875 8.734375 -18.28125 C 8.222656 -18.695312 7.648438 -18.9375 7.015625 -19 C 6.921875 -19 6.847656 -19 6.796875 -19 L 2.90625 -19 L 2.90625 -0.515625 C 2.90625 -0.222656 3.039062 -0.078125 3.3125 -0.078125 C 3.382812 -0.078125 3.421875 -0.0507812 3.421875 0 C 3.421875 0.0507812 3.382812 0.078125 3.3125 0.078125 L 1.421875 0.078125 C 1.367188 0.078125 1.34375 0.0507812 1.34375 0 C 1.34375 -0.0507812 1.367188 -0.078125 1.421875 -0.078125 C 1.710938 -0.078125 1.859375 -0.222656 1.859375 -0.515625 L 1.859375 -18.578125 C 1.859375 -18.859375 1.710938 -19 1.421875 -19 C 1.367188 -19 1.34375 -19.023438 1.34375 -19.078125 C 1.34375 -19.148438 1.367188 -19.1875 1.421875 -19.1875 L 6.796875 -19.1875 C 6.847656 -19.1875 6.921875 -19.1875 7.015625 -19.1875 C 7.867188 -19.144531 8.648438 -18.898438 9.359375 -18.453125 C 10.078125 -18.003906 10.640625 -17.421875 11.046875 -16.703125 C 11.460938 -15.984375 11.671875 -15.1875 11.671875 -14.3125 C 11.671875 -13.488281 11.488281 -12.734375 11.125 -12.046875 C 10.757812 -11.359375 10.253906 -10.785156 9.609375 -10.328125 C 8.972656 -9.867188 8.265625 -9.585938 7.484375 -9.484375 C 8.546875 -9.222656 9.425781 -8.660156 10.125 -7.796875 C 10.832031 -6.929688 11.1875 -5.921875 11.1875 -4.765625 L 11.1875 -0.625 C 11.1875 -0.519531 11.222656 -0.429688 11.296875 -0.359375 C 11.441406 -0.210938 11.59375 -0.191406 11.75 -0.296875 L 11.78125 -0.328125 C 11.800781 -0.328125 11.820312 -0.335938 11.84375 -0.359375 C 11.875 -0.390625 11.910156 -0.390625 11.953125 -0.359375 Z M 11.953125 -0.359375 "/></g></g></g><g fill="#000000" fill-opacity="1"><g transform="translate(54.770631, 21.81121)"><g><path d="M 10.90625 -19.1875 C 10.957031 -19.1875 10.984375 -19.148438 10.984375 -19.078125 C 10.984375 -19.023438 10.957031 -19 10.90625 -19 C 10.613281 -19 10.421875 -18.847656 10.328125 -18.546875 L 6.875 -7.203125 C 6.875 -7.148438 6.847656 -7.125 6.796875 -7.125 C 6.796875 -7.125 6.785156 -7.125 6.765625 -7.125 C 6.710938 -7.144531 6.695312 -7.191406 6.71875 -7.265625 L 10.171875 -18.609375 C 10.179688 -18.710938 10.160156 -18.804688 10.109375 -18.890625 C 10.078125 -18.960938 10.003906 -19 9.890625 -19 C 9.816406 -19 9.78125 -19.023438 9.78125 -19.078125 C 9.78125 -19.148438 9.816406 -19.1875 9.890625 -19.1875 Z M 6.546875 -0.078125 C 6.597656 -0.078125 6.625 -0.0507812 6.625 0 C 6.625 0.0507812 6.597656 0.078125 6.546875 0.078125 L 4.65625 0.078125 C 4.601562 0.078125 4.578125 0.0507812 4.578125 0 C 4.578125 -0.0507812 4.601562 -0.078125 4.65625 -0.078125 C 4.925781 -0.078125 5.0625 -0.222656 5.0625 -0.515625 L 5.0625 -4.546875 L 0.828125 -18.546875 C 0.734375 -18.847656 0.539062 -19 0.25 -19 C 0.195312 -19 0.171875 -19.023438 0.171875 -19.078125 C 0.171875 -19.148438 0.195312 -19.1875 0.25 -19.1875 L 2.1875 -19.1875 C 2.25 -19.1875 2.28125 -19.148438 2.28125 -19.078125 C 2.28125 -19.023438 2.25 -19 2.1875 -19 C 2.082031 -19 2.003906 -18.960938 1.953125 -18.890625 C 1.890625 -18.804688 1.878906 -18.710938 1.921875 -18.609375 L 6.140625 -4.734375 C 6.117188 -4.734375 6.117188 -4.726562 6.140625 -4.71875 L 6.140625 -0.515625 C 6.140625 -0.222656 6.273438 -0.078125 6.546875 -0.078125 Z M 6.546875 -0.078125 "/></g></g></g><g fill="#000000" fill-opacity="1"><g transform="translate(65.948889, 21.81121)"><g><path d="M 1.953125 -18.578125 L 6.1875 -1.671875 C 6.1875 -1.648438 6.1875 -1.628906 6.1875 -1.609375 L 5.75 0.171875 C 5.75 0.128906 5.75 0.128906 5.75 0.171875 C 5.75 0.179688 5.742188 0.195312 5.734375 0.21875 C 5.710938 0.21875 5.703125 0.21875 5.703125 0.21875 C 5.679688 0.238281 5.671875 0.25 5.671875 0.25 C 5.648438 0.25 5.632812 0.238281 5.625 0.21875 C 5.601562 0.195312 5.582031 0.179688 5.5625 0.171875 L 0.875 -18.546875 C 0.800781 -18.847656 0.617188 -19 0.328125 -19 C 0.273438 -19 0.25 -19.023438 0.25 -19.078125 C 0.25 -19.148438 0.273438 -19.1875 0.328125 -19.1875 L 1.734375 -19.1875 C 1.742188 -19.1875 1.75 -19.1875 1.75 -19.1875 L 2.25 -19.1875 C 2.300781 -19.1875 2.328125 -19.148438 2.328125 -19.078125 C 2.328125 -19.023438 2.300781 -19 2.25 -19 C 2.132812 -19 2.050781 -18.960938 2 -18.890625 C 1.945312 -18.804688 1.929688 -18.703125 1.953125 -18.578125 Z M 15.296875 -19.1875 C 15.367188 -19.1875 15.40625 -19.148438 15.40625 -19.078125 C 15.40625 -19.023438 15.367188 -19 15.296875 -19 C 15.003906 -19 14.820312 -18.847656 14.75 -18.546875 L 10.5 -1.609375 L 10.0625 0.171875 C 10.0625 0.128906 10.0625 0.128906 10.0625 0.171875 C 10.0625 0.179688 10.050781 0.195312 10.03125 0.21875 C 10.007812 0.21875 10 0.21875 10 0.21875 C 9.976562 0.238281 9.96875 0.25 9.96875 0.25 C 9.957031 0.25 9.953125 0.238281 9.953125 0.21875 C 9.929688 0.21875 9.921875 0.21875 9.921875 0.21875 C 9.898438 0.195312 9.890625 0.179688 9.890625 0.171875 C 9.890625 0.203125 9.878906 0.203125 9.859375 0.171875 L 7.8125 -8.0625 L 6.875 -4.296875 C 6.851562 -4.242188 6.816406 -4.21875 6.765625 -4.21875 C 6.691406 -4.238281 6.664062 -4.273438 6.6875 -4.328125 L 7.734375 -8.4375 L 5.1875 -18.546875 C 5.101562 -18.847656 4.914062 -19 4.625 -19 C 4.570312 -19 4.546875 -19.023438 4.546875 -19.078125 C 4.546875 -19.148438 4.570312 -19.1875 4.625 -19.1875 L 6.546875 -19.1875 C 6.617188 -19.1875 6.65625 -19.148438 6.65625 -19.078125 C 6.65625 -19.023438 6.617188 -19 6.546875 -19 C 6.441406 -19 6.359375 -18.960938 6.296875 -18.890625 C 6.242188 -18.804688 6.226562 -18.703125 6.25 -18.578125 L 8.28125 -10.609375 L 10.25 -18.578125 C 10.289062 -18.703125 10.28125 -18.804688 10.21875 -18.890625 C 10.164062 -18.960938 10.082031 -19 9.96875 -19 C 9.894531 -19 9.859375 -19.023438 9.859375 -19.078125 C 9.859375 -19.148438 9.894531 -19.1875 9.96875 -19.1875 L 10.984375 -19.1875 C 11.046875 -19.1875 11.078125 -19.148438 11.078125 -19.078125 C 11.078125 -19.023438 11.046875 -19 10.984375 -19 C 10.691406 -19 10.507812 -18.847656 10.4375 -18.546875 L 8.359375 -10.21875 L 10.421875 -2.03125 L 14.578125 -18.578125 C 14.597656 -18.703125 14.582031 -18.804688 14.53125 -18.890625 C 14.46875 -18.960938 14.382812 -19 14.28125 -19 C 14.226562 -19 14.203125 -19.023438 14.203125 -19.078125 C 14.203125 -19.148438 14.226562 -19.1875 14.28125 -19.1875 Z M 15.296875 -19.1875 "/></g></g></g><g fill="#000000" fill-opacity="1"><g transform="translate(81.592977, 21.81121)"><g><path d="M 8.5 -10.0625 C 8.5 -10.113281 8.535156 -10.140625 8.609375 -10.140625 C 8.660156 -10.140625 8.6875 -10.113281 8.6875 -10.0625 L 8.6875 -9.046875 C 8.6875 -8.972656 8.660156 -8.9375 8.609375 -8.9375 C 8.535156 -8.9375 8.5 -8.972656 8.5 -9.046875 C 8.5 -9.316406 8.359375 -9.453125 8.078125 -9.453125 L 4.546875 -9.453125 C 4.492188 -9.453125 4.46875 -9.476562 4.46875 -9.53125 C 4.46875 -9.601562 4.492188 -9.640625 4.546875 -9.640625 L 8.078125 -9.640625 C 8.359375 -9.640625 8.5 -9.78125 8.5 -10.0625 Z M 11.484375 -17.953125 C 11.484375 -18.191406 11.097656 -18.425781 10.328125 -18.65625 C 9.566406 -18.882812 8.570312 -19 7.34375 -19 L 2.90625 -19 L 2.90625 -0.078125 L 7.34375 -0.078125 C 8.570312 -0.078125 9.566406 -0.191406 10.328125 -0.421875 C 11.097656 -0.648438 11.484375 -0.882812 11.484375 -1.125 C 11.484375 -1.195312 11.507812 -1.234375 11.5625 -1.234375 C 11.632812 -1.234375 11.671875 -1.195312 11.671875 -1.125 L 11.671875 0 C 11.671875 0.0507812 11.632812 0.078125 11.5625 0.078125 L 2.828125 0.078125 C 2.804688 0.078125 2.796875 0.078125 2.796875 0.078125 L 1.421875 0.078125 C 1.367188 0.078125 1.34375 0.0507812 1.34375 0 C 1.34375 -0.0507812 1.367188 -0.078125 1.421875 -0.078125 C 1.710938 -0.078125 1.859375 -0.222656 1.859375 -0.515625 L 1.859375 -18.578125 C 1.859375 -18.859375 1.710938 -19 1.421875 -19 C 1.367188 -19 1.34375 -19.023438 1.34375 -19.078125 C 1.34375 -19.148438 1.367188 -19.1875 1.421875 -19.1875 L 2.796875 -19.1875 C 2.796875 -19.1875 2.800781 -19.1875 2.8125 -19.1875 C 2.820312 -19.1875 2.828125 -19.1875 2.828125 -19.1875 L 11.5625 -19.1875 C 11.632812 -19.1875 11.671875 -19.148438 11.671875 -19.078125 L 11.671875 -17.953125 C 11.671875 -17.898438 11.632812 -17.875 11.5625 -17.875 C 11.507812 -17.875 11.484375 -17.898438 11.484375 -17.953125 Z M 11.484375 -17.953125 "/></g></g></g><g fill="#000000" fill-opacity="1"><g transform="translate(93.675358, 21.81121)"><g><path d="M 7.921875 -19.1875 C 8.910156 -19.144531 9.84375 -18.867188 10.71875 -18.359375 C 11.59375 -17.847656 12.359375 -17.148438 13.015625 -16.265625 C 13.671875 -15.378906 14.1875 -14.359375 14.5625 -13.203125 C 14.9375 -12.054688 15.125 -10.832031 15.125 -9.53125 C 15.125 -8.238281 14.9375 -7.015625 14.5625 -5.859375 C 14.1875 -4.710938 13.671875 -3.695312 13.015625 -2.8125 C 12.359375 -1.9375 11.59375 -1.238281 10.71875 -0.71875 C 9.84375 -0.195312 8.910156 0.0664062 7.921875 0.078125 C 7.867188 0.078125 7.8125 0.078125 7.75 0.078125 C 7.675781 0.078125 7.640625 0.0507812 7.640625 0 C 7.640625 -0.0507812 7.675781 -0.078125 7.75 -0.078125 C 7.8125 -0.078125 7.867188 -0.078125 7.921875 -0.078125 C 9.035156 -0.140625 10.039062 -0.585938 10.9375 -1.421875 C 11.832031 -2.265625 12.539062 -3.390625 13.0625 -4.796875 C 13.582031 -6.203125 13.84375 -7.78125 13.84375 -9.53125 C 13.84375 -11.289062 13.582031 -12.875 13.0625 -14.28125 C 12.539062 -15.6875 11.832031 -16.804688 10.9375 -17.640625 C 10.039062 -18.484375 9.035156 -18.9375 7.921875 -19 C 7.878906 -19 7.820312 -19 7.75 -19 L 2.90625 -19 L 2.90625 0 C 2.90625 0.0507812 2.878906 0.078125 2.828125 0.078125 L 1.421875 0.078125 C 1.367188 0.078125 1.34375 0.0507812 1.34375 0 C 1.34375 -0.0507812 1.367188 -0.078125 1.421875 -0.078125 C 1.710938 -0.078125 1.859375 -0.222656 1.859375 -0.515625 L 1.859375 -18.578125 C 1.859375 -18.859375 1.710938 -19 1.421875 -19 C 1.367188 -19 1.34375 -19.023438 1.34375 -19.078125 C 1.34375 -19.148438 1.367188 -19.1875 1.421875 -19.1875 L 2.796875 -19.1875 C 2.796875 -19.1875 2.804688 -19.1875 2.828125 -19.1875 L 7.75 -19.1875 C 7.820312 -19.1875 7.878906 -19.1875 7.921875 -19.1875 Z M 7.921875 -19.1875 "/></g></g></g></g></g><path stroke-linecap="butt" transform="matrix(0.739286, 0, 0, 0.739286, 6.232464, 15.0724)" fill="none" stroke-linejoin="miter" d="M 0.00258475 0.499138 L 65.025234 0.499138 " stroke="#000000" stroke-width="1" stroke-opacity="1" stroke-miterlimit="4"/><path stroke-linecap="butt" transform="matrix(0.739286, -0.000000000000000275, 0.000000000000000275, 0.739286, 86.575787, 27.550258)" fill="none" stroke-linejoin="miter" d="M -0.00212156 0.497386 L 44.123033 0.497386 " stroke="#000000" stroke-width="1" stroke-opacity="1" stroke-miterlimit="4"/></svg>