<svg xmlns="http://www.w3.org/2000/svg" xmlns:xlink="http://www.w3.org/1999/xlink" width="170" zoomAndPan="magnify" viewBox="0 0 127.5 34.499999" height="46" preserveAspectRatio="xMidYMid meet" version="1.0"><defs><g/><clipPath id="2bd7c828d4"><rect x="0" width="114" y="0" height="28"/></clipPath></defs><g transform="matrix(1, 0, 0, 1, 5, 3)"><g clip-path="url(#2bd7c828d4)"><g fill="#ffffff" fill-opacity="1"><g transform="translate(0.808144, 22.086774)"><g><path d="M 8.765625 -8.9375 C 9.546875 -8.476562 10.148438 -7.875 10.578125 -7.125 C 11.015625 -6.382812 11.234375 -5.578125 11.234375 -4.703125 C 11.234375 -3.816406 11.015625 -3.007812 10.578125 -2.28125 C 10.148438 -1.550781 9.570312 -0.957031 8.84375 -0.5 C 8.113281 -0.0507812 7.296875 0.191406 6.390625 0.234375 C 6.273438 0.242188 6.1875 0.25 6.125 0.25 C 4.894531 0.25 3.804688 -0.132812 2.859375 -0.90625 C 2.804688 -0.96875 2.742188 -1.035156 2.671875 -1.109375 C 2.648438 -1.109375 2.632812 -1.113281 2.625 -1.125 C 2.613281 -1.144531 2.597656 -1.15625 2.578125 -1.15625 C 2.503906 -1.238281 2.429688 -1.328125 2.359375 -1.421875 C 2.335938 -1.441406 2.316406 -1.457031 2.296875 -1.46875 C 2.222656 -1.550781 2.15625 -1.617188 2.09375 -1.671875 C 1.394531 -2.554688 1.046875 -3.566406 1.046875 -4.703125 C 1.046875 -4.765625 1.078125 -4.796875 1.140625 -4.796875 L 1.53125 -4.796875 C 1.570312 -4.796875 1.601562 -4.785156 1.625 -4.765625 C 1.632812 -4.722656 1.640625 -4.695312 1.640625 -4.6875 L 1.625 -4.625 C 1.582031 -4.414062 1.5625 -4.046875 1.5625 -3.515625 C 1.5625 -2.984375 1.796875 -2.414062 2.265625 -1.8125 C 2.328125 -1.71875 2.382812 -1.65625 2.4375 -1.625 C 2.457031 -1.582031 2.476562 -1.550781 2.5 -1.53125 C 2.550781 -1.457031 2.625 -1.382812 2.71875 -1.3125 C 2.800781 -1.226562 2.890625 -1.148438 2.984375 -1.078125 C 3.890625 -0.316406 4.9375 0.0625 6.125 0.0625 C 6.1875 0.0625 6.265625 0.0625 6.359375 0.0625 C 7.128906 0 7.832031 -0.222656 8.46875 -0.609375 C 9.101562 -0.992188 9.601562 -1.5 9.96875 -2.125 C 10.34375 -2.75 10.53125 -3.441406 10.53125 -4.203125 C 10.53125 -4.953125 10.34375 -5.648438 9.96875 -6.296875 C 9.601562 -6.941406 9.082031 -7.460938 8.40625 -7.859375 L 3.609375 -10.78125 C 2.867188 -11.238281 2.289062 -11.835938 1.875 -12.578125 C 1.457031 -13.328125 1.25 -14.144531 1.25 -15.03125 C 1.25 -15.925781 1.453125 -16.738281 1.859375 -17.46875 C 2.265625 -18.195312 2.820312 -18.785156 3.53125 -19.234375 C 4.238281 -19.691406 5.03125 -19.945312 5.90625 -20 C 6 -20 6.070312 -20 6.125 -20 C 6.207031 -20 6.25 -19.960938 6.25 -19.890625 C 6.25 -19.835938 6.207031 -19.8125 6.125 -19.8125 C 6.09375 -19.8125 6.03125 -19.8125 5.9375 -19.8125 C 5.175781 -19.769531 4.492188 -19.550781 3.890625 -19.15625 C 3.285156 -18.757812 2.804688 -18.242188 2.453125 -17.609375 C 2.097656 -16.972656 1.921875 -16.273438 1.921875 -15.515625 C 1.921875 -14.765625 2.101562 -14.054688 2.46875 -13.390625 C 2.84375 -12.734375 3.34375 -12.210938 3.96875 -11.828125 Z M 9.640625 -18.21875 C 9.492188 -18.363281 9.335938 -18.515625 9.171875 -18.671875 C 9.128906 -18.722656 9.128906 -18.769531 9.171875 -18.8125 C 9.203125 -18.863281 9.25 -18.863281 9.3125 -18.8125 C 9.476562 -18.65625 9.640625 -18.492188 9.796875 -18.328125 C 10.617188 -17.398438 11.03125 -16.300781 11.03125 -15.03125 C 11.03125 -14.957031 11.003906 -14.921875 10.953125 -14.921875 L 10.5625 -14.921875 C 10.519531 -14.921875 10.488281 -14.929688 10.46875 -14.953125 C 10.445312 -14.992188 10.445312 -15.019531 10.46875 -15.03125 C 10.695312 -16.25 10.421875 -17.3125 9.640625 -18.21875 Z M 9.640625 -18.21875 "/></g></g></g><g fill="#ffffff" fill-opacity="1"><g transform="translate(13.118412, 22.086774)"><g><path d="M 12.796875 -19.859375 C 12.847656 -19.859375 12.875 -19.820312 12.875 -19.75 L 12.875 -18.578125 C 12.875 -18.523438 12.847656 -18.5 12.796875 -18.5 C 12.742188 -18.5 12.71875 -18.523438 12.71875 -18.578125 C 12.71875 -18.828125 12.316406 -19.066406 11.515625 -19.296875 C 10.722656 -19.535156 9.691406 -19.65625 8.421875 -19.65625 L 7.015625 -19.65625 L 7.015625 -0.546875 C 7.015625 -0.234375 7.15625 -0.078125 7.4375 -0.078125 C 7.488281 -0.078125 7.515625 -0.0507812 7.515625 0 C 7.515625 0.0507812 7.488281 0.078125 7.4375 0.078125 L 5.46875 0.078125 C 5.414062 0.078125 5.390625 0.0507812 5.390625 0 C 5.390625 -0.0507812 5.414062 -0.078125 5.46875 -0.078125 C 5.78125 -0.078125 5.9375 -0.234375 5.9375 -0.546875 L 5.9375 -19.65625 L 4.515625 -19.65625 C 3.242188 -19.65625 2.210938 -19.535156 1.421875 -19.296875 C 0.628906 -19.066406 0.234375 -18.828125 0.234375 -18.578125 C 0.234375 -18.523438 0.191406 -18.5 0.109375 -18.5 C 0.0546875 -18.5 0.03125 -18.523438 0.03125 -18.578125 L 0.03125 -19.75 C 0.03125 -19.820312 0.0546875 -19.859375 0.109375 -19.859375 Z M 12.796875 -19.859375 "/></g></g></g><g fill="#ffffff" fill-opacity="1"><g transform="translate(26.052703, 22.086774)"><g><path d="M 8.859375 -20 C 9.878906 -19.96875 10.835938 -19.679688 11.734375 -19.140625 C 12.628906 -18.597656 13.421875 -17.863281 14.109375 -16.9375 C 14.804688 -16.007812 15.34375 -14.941406 15.71875 -13.734375 C 16.09375 -12.523438 16.28125 -11.238281 16.28125 -9.875 C 16.28125 -8.507812 16.09375 -7.222656 15.71875 -6.015625 C 15.34375 -4.804688 14.804688 -3.738281 14.109375 -2.8125 C 13.421875 -1.882812 12.628906 -1.148438 11.734375 -0.609375 C 10.835938 -0.0664062 9.878906 0.210938 8.859375 0.234375 C 8.835938 0.234375 8.828125 0.234375 8.828125 0.234375 C 8.785156 0.242188 8.726562 0.25 8.65625 0.25 C 8.582031 0.25 8.523438 0.242188 8.484375 0.234375 C 7.460938 0.210938 6.5 -0.0664062 5.59375 -0.609375 C 4.6875 -1.148438 3.890625 -1.882812 3.203125 -2.8125 C 2.523438 -3.738281 1.988281 -4.804688 1.59375 -6.015625 C 1.207031 -7.222656 1.015625 -8.507812 1.015625 -9.875 C 1.015625 -11.238281 1.207031 -12.523438 1.59375 -13.734375 C 1.988281 -14.941406 2.523438 -16.007812 3.203125 -16.9375 C 3.890625 -17.863281 4.6875 -18.597656 5.59375 -19.140625 C 6.5 -19.679688 7.460938 -19.96875 8.484375 -20 C 8.597656 -20 8.710938 -20 8.828125 -20 C 8.828125 -20 8.832031 -20 8.84375 -20 C 8.851562 -20 8.859375 -20 8.859375 -20 Z M 8.828125 0.0625 C 9.734375 0.0195312 10.570312 -0.273438 11.34375 -0.828125 C 12.125 -1.390625 12.789062 -2.148438 13.34375 -3.109375 C 13.90625 -4.078125 14.316406 -5.195312 14.578125 -6.46875 C 14.828125 -7.550781 14.953125 -8.6875 14.953125 -9.875 C 14.953125 -11.707031 14.679688 -13.363281 14.140625 -14.84375 C 13.609375 -16.332031 12.878906 -17.519531 11.953125 -18.40625 C 11.035156 -19.300781 9.992188 -19.769531 8.828125 -19.8125 C 8.785156 -19.8125 8.726562 -19.8125 8.65625 -19.8125 C 8.582031 -19.8125 8.523438 -19.8125 8.484375 -19.8125 C 7.535156 -19.769531 6.664062 -19.453125 5.875 -18.859375 C 5.082031 -18.265625 4.40625 -17.445312 3.84375 -16.40625 C 3.28125 -15.363281 2.878906 -14.171875 2.640625 -12.828125 C 2.453125 -11.878906 2.359375 -10.894531 2.359375 -9.875 C 2.359375 -9.53125 2.367188 -9.191406 2.390625 -8.859375 C 2.398438 -8.679688 2.414062 -8.519531 2.4375 -8.375 C 2.457031 -8.03125 2.492188 -7.707031 2.546875 -7.40625 C 2.628906 -6.9375 2.726562 -6.472656 2.84375 -6.015625 C 3.03125 -5.273438 3.265625 -4.59375 3.546875 -3.96875 C 3.660156 -3.707031 3.785156 -3.460938 3.921875 -3.234375 C 4.046875 -3.003906 4.1875 -2.785156 4.34375 -2.578125 C 4.925781 -1.710938 5.597656 -1.050781 6.359375 -0.59375 C 6.546875 -0.476562 6.734375 -0.382812 6.921875 -0.3125 C 7.429688 -0.0820312 7.953125 0.0390625 8.484375 0.0625 C 8.523438 0.0625 8.582031 0.0625 8.65625 0.0625 C 8.75 0.0625 8.804688 0.0625 8.828125 0.0625 Z M 8.828125 0.0625 "/></g></g></g><g fill="#ffffff" fill-opacity="1"><g transform="translate(43.383519, 22.086774)"><g><path d="M 12.375 -0.375 C 12.425781 -0.3125 12.4375 -0.265625 12.40625 -0.234375 C 12.363281 -0.210938 12.320312 -0.191406 12.28125 -0.171875 C 12.300781 -0.171875 12.300781 -0.171875 12.28125 -0.171875 C 12.28125 -0.171875 12.28125 -0.164062 12.28125 -0.15625 C 12.28125 -0.144531 12.28125 -0.140625 12.28125 -0.140625 C 12.070312 0.00390625 11.847656 0.078125 11.609375 0.078125 C 11.285156 0.078125 11.019531 -0.0234375 10.8125 -0.234375 C 10.582031 -0.453125 10.46875 -0.710938 10.46875 -1.015625 L 10.46875 -4.9375 C 10.46875 -5.8125 10.300781 -6.601562 9.96875 -7.3125 C 9.644531 -8.019531 9.195312 -8.59375 8.625 -9.03125 C 8.0625 -9.476562 7.425781 -9.734375 6.71875 -9.796875 C 6.644531 -9.796875 6.582031 -9.796875 6.53125 -9.796875 C 6.46875 -9.796875 6.4375 -9.820312 6.4375 -9.875 C 6.4375 -9.945312 6.46875 -9.984375 6.53125 -9.984375 L 7.03125 -9.984375 C 7.09375 -9.984375 7.171875 -9.984375 7.265625 -9.984375 C 7.921875 -10.023438 8.515625 -10.257812 9.046875 -10.6875 C 9.578125 -11.125 9.988281 -11.695312 10.28125 -12.40625 C 10.570312 -13.125 10.71875 -13.925781 10.71875 -14.8125 C 10.71875 -15.695312 10.570312 -16.5 10.28125 -17.21875 C 9.988281 -17.9375 9.578125 -18.507812 9.046875 -18.9375 C 8.515625 -19.363281 7.921875 -19.601562 7.265625 -19.65625 C 7.171875 -19.65625 7.09375 -19.65625 7.03125 -19.65625 L 3 -19.65625 L 3 -0.546875 C 3 -0.234375 3.144531 -0.078125 3.4375 -0.078125 C 3.507812 -0.078125 3.546875 -0.0507812 3.546875 0 C 3.546875 0.0507812 3.507812 0.078125 3.4375 0.078125 L 1.46875 0.078125 C 1.414062 0.078125 1.390625 0.0507812 1.390625 0 C 1.390625 -0.0507812 1.414062 -0.078125 1.46875 -0.078125 C 1.769531 -0.078125 1.921875 -0.234375 1.921875 -0.546875 L 1.921875 -19.234375 C 1.921875 -19.515625 1.769531 -19.65625 1.46875 -19.65625 C 1.414062 -19.65625 1.390625 -19.6875 1.390625 -19.75 C 1.390625 -19.820312 1.414062 -19.859375 1.46875 -19.859375 L 7.03125 -19.859375 C 7.09375 -19.859375 7.171875 -19.859375 7.265625 -19.859375 C 8.148438 -19.828125 8.960938 -19.578125 9.703125 -19.109375 C 10.441406 -18.648438 11.023438 -18.046875 11.453125 -17.296875 C 11.878906 -16.546875 12.09375 -15.71875 12.09375 -14.8125 C 12.09375 -13.957031 11.898438 -13.175781 11.515625 -12.46875 C 11.140625 -11.757812 10.617188 -11.164062 9.953125 -10.6875 C 9.296875 -10.21875 8.5625 -9.925781 7.75 -9.8125 C 8.84375 -9.550781 9.753906 -8.96875 10.484375 -8.0625 C 11.210938 -7.164062 11.578125 -6.125 11.578125 -4.9375 L 11.578125 -0.65625 C 11.578125 -0.539062 11.613281 -0.445312 11.6875 -0.375 C 11.84375 -0.21875 12.003906 -0.195312 12.171875 -0.3125 L 12.203125 -0.34375 C 12.222656 -0.34375 12.242188 -0.351562 12.265625 -0.375 C 12.296875 -0.40625 12.332031 -0.40625 12.375 -0.375 Z M 12.375 -0.375 "/></g></g></g><g fill="#ffffff" fill-opacity="1"><g transform="translate(56.856739, 22.086774)"><g><path d="M 11.296875 -19.859375 C 11.347656 -19.859375 11.375 -19.820312 11.375 -19.75 C 11.375 -19.6875 11.347656 -19.65625 11.296875 -19.65625 C 10.992188 -19.65625 10.796875 -19.503906 10.703125 -19.203125 L 7.125 -7.46875 C 7.125 -7.40625 7.09375 -7.375 7.03125 -7.375 C 7.03125 -7.375 7.023438 -7.375 7.015625 -7.375 C 6.953125 -7.394531 6.929688 -7.441406 6.953125 -7.515625 L 10.53125 -19.265625 C 10.550781 -19.378906 10.53125 -19.472656 10.46875 -19.546875 C 10.425781 -19.617188 10.351562 -19.65625 10.25 -19.65625 C 10.164062 -19.65625 10.125 -19.6875 10.125 -19.75 C 10.125 -19.820312 10.164062 -19.859375 10.25 -19.859375 Z M 6.78125 -0.078125 C 6.832031 -0.078125 6.859375 -0.0507812 6.859375 0 C 6.859375 0.0507812 6.832031 0.078125 6.78125 0.078125 L 4.828125 0.078125 C 4.765625 0.078125 4.734375 0.0507812 4.734375 0 C 4.734375 -0.0507812 4.765625 -0.078125 4.828125 -0.078125 C 5.109375 -0.078125 5.25 -0.234375 5.25 -0.546875 L 5.25 -4.703125 L 0.84375 -19.203125 C 0.75 -19.503906 0.550781 -19.65625 0.25 -19.65625 C 0.195312 -19.65625 0.171875 -19.6875 0.171875 -19.75 C 0.171875 -19.820312 0.195312 -19.859375 0.25 -19.859375 L 2.265625 -19.859375 C 2.328125 -19.859375 2.359375 -19.820312 2.359375 -19.75 C 2.359375 -19.6875 2.328125 -19.65625 2.265625 -19.65625 C 2.148438 -19.65625 2.066406 -19.617188 2.015625 -19.546875 C 1.953125 -19.472656 1.941406 -19.378906 1.984375 -19.265625 L 6.359375 -4.90625 C 6.335938 -4.90625 6.335938 -4.894531 6.359375 -4.875 L 6.359375 -0.546875 C 6.359375 -0.234375 6.5 -0.078125 6.78125 -0.078125 Z M 6.78125 -0.078125 "/></g></g></g><g fill="#ffffff" fill-opacity="1"><g transform="translate(68.429524, 22.086774)"><g><path d="M 2.015625 -19.234375 L 6.40625 -1.734375 C 6.40625 -1.710938 6.40625 -1.691406 6.40625 -1.671875 L 5.953125 0.171875 C 5.953125 0.128906 5.953125 0.128906 5.953125 0.171875 C 5.953125 0.191406 5.945312 0.210938 5.9375 0.234375 C 5.914062 0.234375 5.90625 0.234375 5.90625 0.234375 C 5.882812 0.242188 5.875 0.25 5.875 0.25 C 5.851562 0.25 5.832031 0.242188 5.8125 0.234375 C 5.789062 0.210938 5.773438 0.191406 5.765625 0.171875 L 0.90625 -19.203125 C 0.832031 -19.503906 0.644531 -19.65625 0.34375 -19.65625 C 0.28125 -19.65625 0.25 -19.6875 0.25 -19.75 C 0.25 -19.820312 0.28125 -19.859375 0.34375 -19.859375 L 1.78125 -19.859375 C 1.78125 -19.859375 1.785156 -19.859375 1.796875 -19.859375 C 1.804688 -19.859375 1.8125 -19.859375 1.8125 -19.859375 L 2.328125 -19.859375 C 2.378906 -19.859375 2.40625 -19.820312 2.40625 -19.75 C 2.40625 -19.6875 2.378906 -19.65625 2.328125 -19.65625 C 2.210938 -19.65625 2.128906 -19.617188 2.078125 -19.546875 C 2.015625 -19.472656 1.992188 -19.367188 2.015625 -19.234375 Z M 15.828125 -19.859375 C 15.910156 -19.859375 15.953125 -19.820312 15.953125 -19.75 C 15.953125 -19.6875 15.910156 -19.65625 15.828125 -19.65625 C 15.523438 -19.65625 15.335938 -19.503906 15.265625 -19.203125 L 10.875 -1.671875 L 10.40625 0.171875 C 10.40625 0.128906 10.40625 0.128906 10.40625 0.171875 C 10.40625 0.191406 10.398438 0.210938 10.390625 0.234375 C 10.367188 0.234375 10.359375 0.234375 10.359375 0.234375 C 10.335938 0.242188 10.328125 0.25 10.328125 0.25 C 10.304688 0.25 10.296875 0.242188 10.296875 0.234375 C 10.273438 0.234375 10.265625 0.234375 10.265625 0.234375 C 10.253906 0.210938 10.25 0.191406 10.25 0.171875 C 10.25 0.210938 10.238281 0.210938 10.21875 0.171875 L 8.09375 -8.34375 L 7.125 -4.453125 C 7.101562 -4.398438 7.066406 -4.375 7.015625 -4.375 C 6.929688 -4.382812 6.898438 -4.421875 6.921875 -4.484375 L 8 -8.734375 L 5.359375 -19.203125 C 5.285156 -19.503906 5.097656 -19.65625 4.796875 -19.65625 C 4.734375 -19.65625 4.703125 -19.6875 4.703125 -19.75 C 4.703125 -19.820312 4.734375 -19.859375 4.796875 -19.859375 L 6.78125 -19.859375 C 6.851562 -19.859375 6.890625 -19.820312 6.890625 -19.75 C 6.890625 -19.6875 6.851562 -19.65625 6.78125 -19.65625 C 6.664062 -19.65625 6.582031 -19.617188 6.53125 -19.546875 C 6.46875 -19.472656 6.445312 -19.367188 6.46875 -19.234375 L 8.5625 -10.984375 L 10.609375 -19.234375 C 10.648438 -19.367188 10.640625 -19.472656 10.578125 -19.546875 C 10.523438 -19.617188 10.441406 -19.65625 10.328125 -19.65625 C 10.253906 -19.65625 10.21875 -19.6875 10.21875 -19.75 C 10.21875 -19.820312 10.253906 -19.859375 10.328125 -19.859375 L 11.375 -19.859375 C 11.4375 -19.859375 11.46875 -19.820312 11.46875 -19.75 C 11.46875 -19.6875 11.4375 -19.65625 11.375 -19.65625 C 11.070312 -19.65625 10.882812 -19.503906 10.8125 -19.203125 L 8.65625 -10.578125 L 10.78125 -2.09375 L 15.09375 -19.234375 C 15.113281 -19.367188 15.09375 -19.472656 15.03125 -19.546875 C 14.976562 -19.617188 14.894531 -19.65625 14.78125 -19.65625 C 14.726562 -19.65625 14.703125 -19.6875 14.703125 -19.75 C 14.703125 -19.820312 14.726562 -19.859375 14.78125 -19.859375 Z M 15.828125 -19.859375 "/></g></g></g><g fill="#ffffff" fill-opacity="1"><g transform="translate(84.625756, 22.086774)"><g><path d="M 8.796875 -10.40625 C 8.796875 -10.46875 8.832031 -10.5 8.90625 -10.5 C 8.96875 -10.5 9 -10.46875 9 -10.40625 L 9 -9.359375 C 9 -9.285156 8.96875 -9.25 8.90625 -9.25 C 8.832031 -9.25 8.796875 -9.285156 8.796875 -9.359375 C 8.796875 -9.648438 8.65625 -9.796875 8.375 -9.796875 L 4.703125 -9.796875 C 4.648438 -9.796875 4.625 -9.820312 4.625 -9.875 C 4.625 -9.945312 4.648438 -9.984375 4.703125 -9.984375 L 8.375 -9.984375 C 8.65625 -9.984375 8.796875 -10.125 8.796875 -10.40625 Z M 11.890625 -18.578125 C 11.890625 -18.828125 11.488281 -19.066406 10.6875 -19.296875 C 9.894531 -19.535156 8.867188 -19.65625 7.609375 -19.65625 L 3 -19.65625 L 3 -0.078125 L 7.609375 -0.078125 C 8.867188 -0.078125 9.894531 -0.195312 10.6875 -0.4375 C 11.488281 -0.675781 11.890625 -0.914062 11.890625 -1.15625 C 11.890625 -1.238281 11.914062 -1.28125 11.96875 -1.28125 C 12.050781 -1.28125 12.09375 -1.238281 12.09375 -1.15625 L 12.09375 0 C 12.09375 0.0507812 12.050781 0.078125 11.96875 0.078125 L 2.921875 0.078125 C 2.898438 0.078125 2.890625 0.078125 2.890625 0.078125 L 1.46875 0.078125 C 1.414062 0.078125 1.390625 0.0507812 1.390625 0 C 1.390625 -0.0507812 1.414062 -0.078125 1.46875 -0.078125 C 1.769531 -0.078125 1.921875 -0.234375 1.921875 -0.546875 L 1.921875 -19.234375 C 1.921875 -19.515625 1.769531 -19.65625 1.46875 -19.65625 C 1.414062 -19.65625 1.390625 -19.6875 1.390625 -19.75 C 1.390625 -19.820312 1.414062 -19.859375 1.46875 -19.859375 L 2.890625 -19.859375 C 2.890625 -19.859375 2.894531 -19.859375 2.90625 -19.859375 C 2.914062 -19.859375 2.921875 -19.859375 2.921875 -19.859375 L 11.96875 -19.859375 C 12.050781 -19.859375 12.09375 -19.820312 12.09375 -19.75 L 12.09375 -18.578125 C 12.09375 -18.523438 12.050781 -18.5 11.96875 -18.5 C 11.914062 -18.5 11.890625 -18.523438 11.890625 -18.578125 Z M 11.890625 -18.578125 "/></g></g></g><g fill="#ffffff" fill-opacity="1"><g transform="translate(97.134574, 22.086774)"><g><path d="M 8.203125 -19.859375 C 9.222656 -19.828125 10.1875 -19.546875 11.09375 -19.015625 C 12 -18.484375 12.789062 -17.757812 13.46875 -16.84375 C 14.15625 -15.925781 14.691406 -14.867188 15.078125 -13.671875 C 15.460938 -12.484375 15.65625 -11.21875 15.65625 -9.875 C 15.65625 -8.53125 15.460938 -7.257812 15.078125 -6.0625 C 14.691406 -4.875 14.15625 -3.828125 13.46875 -2.921875 C 12.789062 -2.015625 12 -1.289062 11.09375 -0.75 C 10.1875 -0.207031 9.222656 0.0664062 8.203125 0.078125 C 8.140625 0.078125 8.082031 0.078125 8.03125 0.078125 C 7.957031 0.078125 7.921875 0.0507812 7.921875 0 C 7.921875 -0.0507812 7.957031 -0.078125 8.03125 -0.078125 C 8.082031 -0.078125 8.140625 -0.078125 8.203125 -0.078125 C 9.359375 -0.140625 10.398438 -0.601562 11.328125 -1.46875 C 12.253906 -2.34375 12.984375 -3.507812 13.515625 -4.96875 C 14.054688 -6.425781 14.328125 -8.0625 14.328125 -9.875 C 14.328125 -11.6875 14.054688 -13.320312 13.515625 -14.78125 C 12.984375 -16.238281 12.253906 -17.398438 11.328125 -18.265625 C 10.398438 -19.140625 9.359375 -19.601562 8.203125 -19.65625 C 8.160156 -19.65625 8.101562 -19.65625 8.03125 -19.65625 L 3 -19.65625 L 3 0 C 3 0.0507812 2.972656 0.078125 2.921875 0.078125 L 1.46875 0.078125 C 1.414062 0.078125 1.390625 0.0507812 1.390625 0 C 1.390625 -0.0507812 1.414062 -0.078125 1.46875 -0.078125 C 1.769531 -0.078125 1.921875 -0.234375 1.921875 -0.546875 L 1.921875 -19.234375 C 1.921875 -19.515625 1.769531 -19.65625 1.46875 -19.65625 C 1.414062 -19.65625 1.390625 -19.6875 1.390625 -19.75 C 1.390625 -19.820312 1.414062 -19.859375 1.46875 -19.859375 L 2.890625 -19.859375 C 2.890625 -19.859375 2.898438 -19.859375 2.921875 -19.859375 L 8.03125 -19.859375 C 8.101562 -19.859375 8.160156 -19.859375 8.203125 -19.859375 Z M 8.203125 -19.859375 "/></g></g></g></g></g><path stroke-linecap="butt" transform="matrix(0.739286, 0, 0, 0.739286, 6.428988, 15.017287)" fill="none" stroke-linejoin="miter" d="M 0.000946149 0.499715 L 67.316772 0.499715 " stroke="#ffffff" stroke-width="1" stroke-opacity="1" stroke-miterlimit="4"/><path stroke-linecap="butt" transform="matrix(0.739286, -0.000000000000000275, 0.000000000000000275, 0.739286, 89.607956, 27.935542)" fill="none" stroke-linejoin="miter" d="M 0.00191929 0.499327 L 45.680516 0.499327 " stroke="#ffffff" stroke-width="1" stroke-opacity="1" stroke-miterlimit="4"/></svg>