<svg xmlns="http://www.w3.org/2000/svg" xmlns:xlink="http://www.w3.org/1999/xlink" width="2000" zoomAndPan="magnify" viewBox="0 0 1500 1499.999933" height="2000" preserveAspectRatio="xMidYMid meet" version="1.0"><defs><g/><clipPath id="beeb540082"><rect x="0" width="1378" y="0" height="334"/></clipPath></defs><g transform="matrix(1, 0, 0, 1, 60, 583)"><g clip-path="url(#beeb540082)"><g fill="#ffffff" fill-opacity="1"><g transform="translate(2.575116, 265.332224)"><g><path d="M 106.640625 -108.703125 C 116.066406 -103.179688 123.425781 -95.875 128.71875 -86.78125 C 134.007812 -77.695312 136.65625 -67.863281 136.65625 -57.28125 C 136.65625 -46.46875 134.007812 -36.632812 128.71875 -27.78125 C 123.425781 -18.925781 116.347656 -11.734375 107.484375 -6.203125 C 98.628906 -0.679688 88.679688 2.304688 77.640625 2.765625 C 76.265625 2.992188 75.234375 3.109375 74.546875 3.109375 C 59.585938 3.109375 46.359375 -1.609375 34.859375 -11.046875 C 34.160156 -11.734375 33.351562 -12.535156 32.4375 -13.453125 C 32.207031 -13.453125 32.035156 -13.566406 31.921875 -13.796875 C 31.804688 -14.035156 31.632812 -14.15625 31.40625 -14.15625 C 30.476562 -15.070312 29.554688 -16.101562 28.640625 -17.25 C 28.410156 -17.476562 28.179688 -17.707031 27.953125 -17.9375 C 27.035156 -18.863281 26.226562 -19.671875 25.53125 -20.359375 C 17.019531 -31.171875 12.765625 -43.476562 12.765625 -57.28125 C 12.765625 -57.976562 13.109375 -58.328125 13.796875 -58.328125 L 18.640625 -58.328125 C 19.097656 -58.328125 19.441406 -58.207031 19.671875 -57.96875 C 19.898438 -57.507812 20.015625 -57.164062 20.015625 -56.9375 L 19.671875 -56.25 C 19.210938 -53.71875 18.984375 -49.226562 18.984375 -42.78125 C 18.984375 -36.34375 21.859375 -29.445312 27.609375 -22.09375 C 28.296875 -20.9375 28.984375 -20.128906 29.671875 -19.671875 C 29.898438 -19.210938 30.132812 -18.867188 30.375 -18.640625 C 31.0625 -17.710938 31.976562 -16.789062 33.125 -15.875 C 34.050781 -14.957031 35.085938 -14.035156 36.234375 -13.109375 C 47.273438 -3.910156 60.046875 0.6875 74.546875 0.6875 C 75.234375 0.6875 76.148438 0.6875 77.296875 0.6875 C 86.734375 0 95.304688 -2.703125 103.015625 -7.421875 C 110.722656 -12.140625 116.816406 -18.289062 121.296875 -25.875 C 125.785156 -33.46875 128.03125 -41.867188 128.03125 -51.078125 C 128.03125 -60.273438 125.785156 -68.785156 121.296875 -76.609375 C 116.816406 -84.429688 110.429688 -90.757812 102.140625 -95.59375 L 43.828125 -131.140625 C 34.859375 -136.660156 27.84375 -143.960938 22.78125 -153.046875 C 17.71875 -162.140625 15.1875 -172.09375 15.1875 -182.90625 C 15.1875 -193.71875 17.65625 -203.550781 22.59375 -212.40625 C 27.539062 -221.257812 34.328125 -228.445312 42.953125 -233.96875 C 51.585938 -239.488281 61.195312 -242.597656 71.78125 -243.296875 C 72.925781 -243.296875 73.847656 -243.296875 74.546875 -243.296875 C 75.460938 -243.296875 75.921875 -242.832031 75.921875 -241.90625 C 75.921875 -241.21875 75.460938 -240.875 74.546875 -240.875 C 74.078125 -240.875 73.269531 -240.875 72.125 -240.875 C 62.925781 -240.414062 54.644531 -237.769531 47.28125 -232.9375 C 39.914062 -228.101562 34.101562 -221.832031 29.84375 -214.125 C 25.59375 -206.414062 23.46875 -197.960938 23.46875 -188.765625 C 23.46875 -179.566406 25.707031 -170.941406 30.1875 -162.890625 C 34.675781 -154.835938 40.71875 -148.507812 48.3125 -143.90625 Z M 117.328125 -221.546875 C 115.492188 -223.390625 113.539062 -225.234375 111.46875 -227.078125 C 111.007812 -227.765625 111.007812 -228.335938 111.46875 -228.796875 C 111.925781 -229.484375 112.5 -229.484375 113.1875 -228.796875 C 115.257812 -226.953125 117.21875 -225 119.0625 -222.9375 C 129.175781 -211.65625 134.234375 -198.3125 134.234375 -182.90625 C 134.234375 -181.976562 133.890625 -181.515625 133.203125 -181.515625 L 128.375 -181.515625 C 127.914062 -181.515625 127.570312 -181.628906 127.34375 -181.859375 C 127.113281 -182.316406 127.113281 -182.664062 127.34375 -182.90625 C 130.101562 -197.625 126.765625 -210.503906 117.328125 -221.546875 Z M 117.328125 -221.546875 "/></g></g></g><g fill="#ffffff" fill-opacity="1"><g transform="translate(152.329681, 265.332224)"><g><path d="M 155.640625 -241.5625 C 156.328125 -241.5625 156.671875 -241.101562 156.671875 -240.1875 L 156.671875 -226.03125 C 156.671875 -225.34375 156.328125 -225 155.640625 -225 C 154.953125 -225 154.609375 -225.34375 154.609375 -226.03125 C 154.609375 -229.019531 149.773438 -231.953125 140.109375 -234.828125 C 130.441406 -237.710938 117.90625 -239.15625 102.5 -239.15625 L 85.234375 -239.15625 L 85.234375 -6.5625 C 85.234375 -2.875 86.960938 -1.03125 90.421875 -1.03125 C 91.109375 -1.03125 91.453125 -0.6875 91.453125 0 C 91.453125 0.6875 91.109375 1.03125 90.421875 1.03125 L 66.609375 1.03125 C 65.910156 1.03125 65.5625 0.6875 65.5625 0 C 65.5625 -0.6875 65.910156 -1.03125 66.609375 -1.03125 C 70.285156 -1.03125 72.125 -2.875 72.125 -6.5625 L 72.125 -239.15625 L 54.875 -239.15625 C 39.457031 -239.15625 26.914062 -237.710938 17.25 -234.828125 C 7.59375 -231.953125 2.765625 -229.019531 2.765625 -226.03125 C 2.765625 -225.34375 2.300781 -225 1.375 -225 C 0.6875 -225 0.34375 -225.34375 0.34375 -226.03125 L 0.34375 -240.1875 C 0.34375 -241.101562 0.6875 -241.5625 1.375 -241.5625 Z M 155.640625 -241.5625 "/></g></g></g><g fill="#ffffff" fill-opacity="1"><g transform="translate(309.675501, 265.332224)"><g><path d="M 107.671875 -243.296875 C 120.085938 -242.828125 131.757812 -239.316406 142.6875 -232.765625 C 153.625 -226.210938 163.289062 -217.296875 171.6875 -206.015625 C 180.082031 -194.742188 186.578125 -181.742188 191.171875 -167.015625 C 195.773438 -152.296875 198.078125 -136.65625 198.078125 -120.09375 C 198.078125 -103.53125 195.773438 -87.882812 191.171875 -73.15625 C 186.578125 -58.4375 180.082031 -45.4375 171.6875 -34.15625 C 163.289062 -22.882812 153.625 -13.96875 142.6875 -7.40625 C 131.757812 -0.851562 120.085938 2.535156 107.671875 2.765625 C 107.441406 2.765625 107.328125 2.765625 107.328125 2.765625 C 106.867188 2.992188 106.175781 3.109375 105.25 3.109375 C 104.332031 3.109375 103.644531 2.992188 103.1875 2.765625 C 90.757812 2.535156 79.023438 -0.851562 67.984375 -7.40625 C 56.941406 -13.96875 47.28125 -22.882812 39 -34.15625 C 30.71875 -45.4375 24.21875 -58.4375 19.5 -73.15625 C 14.78125 -87.882812 12.421875 -103.53125 12.421875 -120.09375 C 12.421875 -136.65625 14.78125 -152.296875 19.5 -167.015625 C 24.21875 -181.742188 30.71875 -194.742188 39 -206.015625 C 47.28125 -217.296875 56.941406 -226.210938 67.984375 -232.765625 C 79.023438 -239.316406 90.757812 -242.828125 103.1875 -243.296875 C 104.5625 -243.296875 105.941406 -243.296875 107.328125 -243.296875 C 107.328125 -243.296875 107.382812 -243.296875 107.5 -243.296875 C 107.613281 -243.296875 107.671875 -243.296875 107.671875 -243.296875 Z M 107.328125 0.6875 C 118.367188 0.226562 128.601562 -3.390625 138.03125 -10.171875 C 147.46875 -16.960938 155.578125 -26.222656 162.359375 -37.953125 C 169.148438 -49.691406 174.15625 -63.269531 177.375 -78.6875 C 180.363281 -91.800781 181.859375 -105.601562 181.859375 -120.09375 C 181.859375 -142.40625 178.578125 -162.59375 172.015625 -180.65625 C 165.460938 -198.71875 156.609375 -213.15625 145.453125 -223.96875 C 134.296875 -234.78125 121.585938 -240.414062 107.328125 -240.875 C 106.867188 -240.875 106.175781 -240.875 105.25 -240.875 C 104.332031 -240.875 103.644531 -240.875 103.1875 -240.875 C 91.675781 -240.414062 81.085938 -236.5625 71.421875 -229.3125 C 61.765625 -222.0625 53.539062 -212.109375 46.75 -199.453125 C 39.96875 -186.804688 35.082031 -172.316406 32.09375 -155.984375 C 29.789062 -144.484375 28.640625 -132.519531 28.640625 -120.09375 C 28.640625 -115.945312 28.753906 -111.804688 28.984375 -107.671875 C 29.210938 -105.597656 29.441406 -103.640625 29.671875 -101.796875 C 29.898438 -97.660156 30.363281 -93.75 31.0625 -90.0625 C 31.976562 -84.3125 33.128906 -78.675781 34.515625 -73.15625 C 36.804688 -64.1875 39.679688 -55.90625 43.140625 -48.3125 C 44.515625 -45.09375 46.007812 -42.101562 47.625 -39.34375 C 49.226562 -36.582031 50.953125 -33.9375 52.796875 -31.40625 C 59.929688 -20.820312 68.097656 -12.769531 77.296875 -7.25 C 79.597656 -5.863281 81.898438 -4.710938 84.203125 -3.796875 C 90.410156 -1.035156 96.738281 0.457031 103.1875 0.6875 C 103.644531 0.6875 104.332031 0.6875 105.25 0.6875 C 106.40625 0.6875 107.097656 0.6875 107.328125 0.6875 Z M 107.328125 0.6875 "/></g></g></g><g fill="#ffffff" fill-opacity="1"><g transform="translate(520.505099, 265.332224)"><g><path d="M 150.453125 -4.484375 C 151.148438 -3.796875 151.269531 -3.222656 150.8125 -2.765625 C 150.34375 -2.535156 149.878906 -2.304688 149.421875 -2.078125 C 149.648438 -2.078125 149.648438 -2.078125 149.421875 -2.078125 C 149.421875 -2.078125 149.421875 -2.015625 149.421875 -1.890625 C 149.421875 -1.773438 149.421875 -1.71875 149.421875 -1.71875 C 146.890625 0.113281 144.128906 1.03125 141.140625 1.03125 C 137.234375 1.03125 134.015625 -0.234375 131.484375 -2.765625 C 128.722656 -5.523438 127.34375 -8.742188 127.34375 -12.421875 L 127.34375 -60.046875 C 127.34375 -70.628906 125.328125 -80.234375 121.296875 -88.859375 C 117.273438 -97.484375 111.8125 -104.5 104.90625 -109.90625 C 98.007812 -115.3125 90.300781 -118.363281 81.78125 -119.0625 C 80.863281 -119.0625 80.0625 -119.0625 79.375 -119.0625 C 78.6875 -119.0625 78.34375 -119.40625 78.34375 -120.09375 C 78.34375 -121.007812 78.6875 -121.46875 79.375 -121.46875 L 85.578125 -121.46875 C 86.273438 -121.46875 87.195312 -121.46875 88.34375 -121.46875 C 96.394531 -121.925781 103.640625 -124.800781 110.078125 -130.09375 C 116.523438 -135.382812 121.53125 -142.34375 125.09375 -150.96875 C 128.664062 -159.601562 130.453125 -169.328125 130.453125 -180.140625 C 130.453125 -190.953125 128.664062 -200.726562 125.09375 -209.46875 C 121.53125 -218.207031 116.523438 -225.164062 110.078125 -230.34375 C 103.640625 -235.519531 96.394531 -238.457031 88.34375 -239.15625 C 87.195312 -239.15625 86.273438 -239.15625 85.578125 -239.15625 L 36.578125 -239.15625 L 36.578125 -6.5625 C 36.578125 -2.875 38.300781 -1.03125 41.75 -1.03125 C 42.675781 -1.03125 43.140625 -0.6875 43.140625 0 C 43.140625 0.6875 42.675781 1.03125 41.75 1.03125 L 17.9375 1.03125 C 17.25 1.03125 16.90625 0.6875 16.90625 0 C 16.90625 -0.6875 17.25 -1.03125 17.9375 -1.03125 C 21.625 -1.03125 23.46875 -2.875 23.46875 -6.5625 L 23.46875 -233.96875 C 23.46875 -237.425781 21.625 -239.15625 17.9375 -239.15625 C 17.25 -239.15625 16.90625 -239.5 16.90625 -240.1875 C 16.90625 -241.101562 17.25 -241.5625 17.9375 -241.5625 L 85.578125 -241.5625 C 86.273438 -241.5625 87.195312 -241.5625 88.34375 -241.5625 C 99.15625 -241.101562 109.046875 -238.054688 118.015625 -232.421875 C 126.992188 -226.785156 134.070312 -219.421875 139.25 -210.328125 C 144.425781 -201.242188 147.015625 -191.179688 147.015625 -180.140625 C 147.015625 -169.785156 144.710938 -160.296875 140.109375 -151.671875 C 135.503906 -143.046875 129.175781 -135.851562 121.125 -130.09375 C 113.070312 -124.34375 104.097656 -120.78125 94.203125 -119.40625 C 107.546875 -116.1875 118.644531 -109.109375 127.5 -98.171875 C 136.363281 -87.242188 140.796875 -74.535156 140.796875 -60.046875 L 140.796875 -7.9375 C 140.796875 -6.550781 141.253906 -5.398438 142.171875 -4.484375 C 144.015625 -2.640625 145.972656 -2.410156 148.046875 -3.796875 L 148.390625 -4.140625 C 148.617188 -4.140625 148.847656 -4.253906 149.078125 -4.484375 C 149.535156 -4.941406 149.992188 -4.941406 150.453125 -4.484375 Z M 150.453125 -4.484375 "/></g></g></g><g fill="#ffffff" fill-opacity="1"><g transform="translate(684.406986, 265.332224)"><g><path d="M 137.34375 -241.5625 C 138.03125 -241.5625 138.375 -241.101562 138.375 -240.1875 C 138.375 -239.5 138.03125 -239.15625 137.34375 -239.15625 C 133.664062 -239.15625 131.25 -237.3125 130.09375 -233.625 L 86.625 -90.765625 C 86.625 -90.066406 86.273438 -89.71875 85.578125 -89.71875 C 85.578125 -89.71875 85.460938 -89.71875 85.234375 -89.71875 C 84.546875 -89.945312 84.316406 -90.523438 84.546875 -91.453125 L 128.03125 -234.3125 C 128.257812 -235.695312 128.03125 -236.847656 127.34375 -237.765625 C 126.882812 -238.691406 125.960938 -239.15625 124.578125 -239.15625 C 123.660156 -239.15625 123.203125 -239.5 123.203125 -240.1875 C 123.203125 -241.101562 123.660156 -241.5625 124.578125 -241.5625 Z M 82.484375 -1.03125 C 83.171875 -1.03125 83.515625 -0.6875 83.515625 0 C 83.515625 0.6875 83.171875 1.03125 82.484375 1.03125 L 58.671875 1.03125 C 57.972656 1.03125 57.625 0.6875 57.625 0 C 57.625 -0.6875 57.972656 -1.03125 58.671875 -1.03125 C 62.117188 -1.03125 63.84375 -2.875 63.84375 -6.5625 L 63.84375 -57.28125 L 10.359375 -233.625 C 9.203125 -237.3125 6.785156 -239.15625 3.109375 -239.15625 C 2.421875 -239.15625 2.078125 -239.5 2.078125 -240.1875 C 2.078125 -241.101562 2.421875 -241.5625 3.109375 -241.5625 L 27.609375 -241.5625 C 28.296875 -241.5625 28.640625 -241.101562 28.640625 -240.1875 C 28.640625 -239.5 28.296875 -239.15625 27.609375 -239.15625 C 26.222656 -239.15625 25.1875 -238.691406 24.5 -237.765625 C 23.8125 -236.847656 23.695312 -235.695312 24.15625 -234.3125 L 77.296875 -59.703125 C 77.066406 -59.703125 77.066406 -59.585938 77.296875 -59.359375 L 77.296875 -6.5625 C 77.296875 -2.875 79.023438 -1.03125 82.484375 -1.03125 Z M 82.484375 -1.03125 "/></g></g></g><g fill="#ffffff" fill-opacity="1"><g transform="translate(825.190065, 265.332224)"><g><path d="M 24.5 -233.96875 L 77.984375 -21.046875 C 77.984375 -20.816406 77.984375 -20.585938 77.984375 -20.359375 L 72.46875 2.078125 C 72.46875 1.609375 72.46875 1.609375 72.46875 2.078125 C 72.46875 2.304688 72.351562 2.535156 72.125 2.765625 C 71.894531 2.765625 71.78125 2.765625 71.78125 2.765625 C 71.550781 2.992188 71.4375 3.109375 71.4375 3.109375 C 71.207031 3.109375 70.976562 2.992188 70.75 2.765625 C 70.519531 2.535156 70.285156 2.304688 70.046875 2.078125 L 11.046875 -233.625 C 10.117188 -237.3125 7.816406 -239.15625 4.140625 -239.15625 C 3.453125 -239.15625 3.109375 -239.5 3.109375 -240.1875 C 3.109375 -241.101562 3.453125 -241.5625 4.140625 -241.5625 L 21.734375 -241.5625 C 21.734375 -241.5625 21.789062 -241.5625 21.90625 -241.5625 C 22.03125 -241.5625 22.09375 -241.5625 22.09375 -241.5625 L 28.296875 -241.5625 C 28.984375 -241.5625 29.328125 -241.101562 29.328125 -240.1875 C 29.328125 -239.5 28.984375 -239.15625 28.296875 -239.15625 C 26.921875 -239.15625 25.882812 -238.691406 25.1875 -237.765625 C 24.5 -236.847656 24.269531 -235.582031 24.5 -233.96875 Z M 192.5625 -241.5625 C 193.476562 -241.5625 193.9375 -241.101562 193.9375 -240.1875 C 193.9375 -239.5 193.476562 -239.15625 192.5625 -239.15625 C 188.882812 -239.15625 186.582031 -237.3125 185.65625 -233.625 L 132.171875 -20.359375 L 126.65625 2.078125 C 126.65625 1.609375 126.65625 1.609375 126.65625 2.078125 C 126.65625 2.304688 126.535156 2.535156 126.296875 2.765625 C 126.066406 2.765625 125.953125 2.765625 125.953125 2.765625 C 125.722656 2.992188 125.609375 3.109375 125.609375 3.109375 C 125.378906 3.109375 125.265625 2.992188 125.265625 2.765625 C 125.035156 2.765625 124.921875 2.765625 124.921875 2.765625 C 124.691406 2.535156 124.578125 2.304688 124.578125 2.078125 C 124.578125 2.535156 124.460938 2.535156 124.234375 2.078125 L 98.359375 -101.453125 L 86.625 -54.1875 C 86.382812 -53.488281 85.921875 -53.140625 85.234375 -53.140625 C 84.316406 -53.367188 83.972656 -53.832031 84.203125 -54.53125 L 97.3125 -106.28125 L 65.21875 -233.625 C 64.300781 -237.3125 62.003906 -239.15625 58.328125 -239.15625 C 57.628906 -239.15625 57.28125 -239.5 57.28125 -240.1875 C 57.28125 -241.101562 57.628906 -241.5625 58.328125 -241.5625 L 82.484375 -241.5625 C 83.398438 -241.5625 83.859375 -241.101562 83.859375 -240.1875 C 83.859375 -239.5 83.398438 -239.15625 82.484375 -239.15625 C 81.097656 -239.15625 80.0625 -238.691406 79.375 -237.765625 C 78.6875 -236.847656 78.457031 -235.582031 78.6875 -233.96875 L 104.21875 -133.546875 L 129.0625 -233.96875 C 129.519531 -235.582031 129.40625 -236.847656 128.71875 -237.765625 C 128.03125 -238.691406 126.992188 -239.15625 125.609375 -239.15625 C 124.691406 -239.15625 124.234375 -239.5 124.234375 -240.1875 C 124.234375 -241.101562 124.691406 -241.5625 125.609375 -241.5625 L 138.375 -241.5625 C 139.070312 -241.5625 139.421875 -241.101562 139.421875 -240.1875 C 139.421875 -239.5 139.070312 -239.15625 138.375 -239.15625 C 134.695312 -239.15625 132.398438 -237.3125 131.484375 -233.625 L 105.25 -128.71875 L 131.140625 -25.53125 L 183.59375 -233.96875 C 183.820312 -235.582031 183.59375 -236.847656 182.90625 -237.765625 C 182.207031 -238.691406 181.171875 -239.15625 179.796875 -239.15625 C 179.109375 -239.15625 178.765625 -239.5 178.765625 -240.1875 C 178.765625 -241.101562 179.109375 -241.5625 179.796875 -241.5625 Z M 192.5625 -241.5625 "/></g></g></g><g fill="#ffffff" fill-opacity="1"><g transform="translate(1022.217441, 265.332224)"><g><path d="M 106.984375 -126.65625 C 106.984375 -127.34375 107.441406 -127.6875 108.359375 -127.6875 C 109.046875 -127.6875 109.390625 -127.34375 109.390625 -126.65625 L 109.390625 -113.875 C 109.390625 -112.957031 109.046875 -112.5 108.359375 -112.5 C 107.441406 -112.5 106.984375 -112.957031 106.984375 -113.875 C 106.984375 -117.332031 105.253906 -119.0625 101.796875 -119.0625 L 57.28125 -119.0625 C 56.59375 -119.0625 56.25 -119.40625 56.25 -120.09375 C 56.25 -121.007812 56.59375 -121.46875 57.28125 -121.46875 L 101.796875 -121.46875 C 105.253906 -121.46875 106.984375 -123.195312 106.984375 -126.65625 Z M 144.59375 -226.03125 C 144.59375 -229.019531 139.757812 -231.953125 130.09375 -234.828125 C 120.4375 -237.710938 107.898438 -239.15625 92.484375 -239.15625 L 36.578125 -239.15625 L 36.578125 -1.03125 L 92.484375 -1.03125 C 107.898438 -1.03125 120.4375 -2.46875 130.09375 -5.34375 C 139.757812 -8.21875 144.59375 -11.15625 144.59375 -14.15625 C 144.59375 -15.070312 144.9375 -15.53125 145.625 -15.53125 C 146.550781 -15.53125 147.015625 -15.070312 147.015625 -14.15625 L 147.015625 0 C 147.015625 0.6875 146.550781 1.03125 145.625 1.03125 L 35.546875 1.03125 C 35.316406 1.03125 35.203125 1.03125 35.203125 1.03125 L 17.9375 1.03125 C 17.25 1.03125 16.90625 0.6875 16.90625 0 C 16.90625 -0.6875 17.25 -1.03125 17.9375 -1.03125 C 21.625 -1.03125 23.46875 -2.875 23.46875 -6.5625 L 23.46875 -233.96875 C 23.46875 -237.425781 21.625 -239.15625 17.9375 -239.15625 C 17.25 -239.15625 16.90625 -239.5 16.90625 -240.1875 C 16.90625 -241.101562 17.25 -241.5625 17.9375 -241.5625 L 35.203125 -241.5625 C 35.203125 -241.5625 35.257812 -241.5625 35.375 -241.5625 C 35.488281 -241.5625 35.546875 -241.5625 35.546875 -241.5625 L 145.625 -241.5625 C 146.550781 -241.5625 147.015625 -241.101562 147.015625 -240.1875 L 147.015625 -226.03125 C 147.015625 -225.34375 146.550781 -225 145.625 -225 C 144.9375 -225 144.59375 -225.34375 144.59375 -226.03125 Z M 144.59375 -226.03125 "/></g></g></g><g fill="#ffffff" fill-opacity="1"><g transform="translate(1174.387376, 265.332224)"><g><path d="M 99.734375 -241.5625 C 112.148438 -241.101562 123.878906 -237.648438 134.921875 -231.203125 C 145.972656 -224.765625 155.640625 -215.96875 163.921875 -204.8125 C 172.203125 -193.65625 178.695312 -180.828125 183.40625 -166.328125 C 188.125 -151.835938 190.484375 -136.425781 190.484375 -120.09375 C 190.484375 -103.757812 188.125 -88.34375 183.40625 -73.84375 C 178.695312 -59.351562 172.203125 -46.585938 163.921875 -35.546875 C 155.640625 -24.503906 145.972656 -15.703125 134.921875 -9.140625 C 123.878906 -2.585938 112.148438 0.800781 99.734375 1.03125 C 99.046875 1.03125 98.351562 1.03125 97.65625 1.03125 C 96.738281 1.03125 96.28125 0.6875 96.28125 0 C 96.28125 -0.6875 96.738281 -1.03125 97.65625 -1.03125 C 98.351562 -1.03125 99.046875 -1.03125 99.734375 -1.03125 C 113.765625 -1.726562 126.414062 -7.363281 137.6875 -17.9375 C 148.96875 -28.519531 157.882812 -42.671875 164.4375 -60.390625 C 170.988281 -78.109375 174.265625 -98.007812 174.265625 -120.09375 C 174.265625 -142.175781 170.988281 -162.070312 164.4375 -179.78125 C 157.882812 -197.5 148.96875 -211.648438 137.6875 -222.234375 C 126.414062 -232.816406 113.765625 -238.457031 99.734375 -239.15625 C 99.273438 -239.15625 98.582031 -239.15625 97.65625 -239.15625 L 36.578125 -239.15625 L 36.578125 0 C 36.578125 0.6875 36.234375 1.03125 35.546875 1.03125 L 17.9375 1.03125 C 17.25 1.03125 16.90625 0.6875 16.90625 0 C 16.90625 -0.6875 17.25 -1.03125 17.9375 -1.03125 C 21.625 -1.03125 23.46875 -2.875 23.46875 -6.5625 L 23.46875 -233.96875 C 23.46875 -237.425781 21.625 -239.15625 17.9375 -239.15625 C 17.25 -239.15625 16.90625 -239.5 16.90625 -240.1875 C 16.90625 -241.101562 17.25 -241.5625 17.9375 -241.5625 L 35.203125 -241.5625 C 35.203125 -241.5625 35.316406 -241.5625 35.546875 -241.5625 L 97.65625 -241.5625 C 98.582031 -241.5625 99.273438 -241.5625 99.734375 -241.5625 Z M 99.734375 -241.5625 "/></g></g></g></g></g><path stroke-linecap="butt" transform="matrix(0.75, 0, 0, 0.75, 34.856138, 543.439085)" fill="none" stroke-linejoin="miter" d="M -0.00089173 1.997887 L 807.217928 1.997887 " stroke="#ffffff" stroke-width="4" stroke-opacity="1" stroke-miterlimit="4"/><path stroke-linecap="butt" transform="matrix(0.75, -0.000000000000000651, 0.000000000000000651, 0.75, 1054.301895, 903.952582)" fill="none" stroke-linejoin="miter" d="M -0.00148439 2.000724 L 547.790229 2.000724 " stroke="#ffffff" stroke-width="4" stroke-opacity="1" stroke-miterlimit="4"/></svg>